<svg aria-hidden="true" style="position:absolute;width:0;height:0;overflow:hidden" xmlns="http://www.w3.org/2000/svg"><defs><symbol id="icon-Amazone-pay" viewBox="0 0 167 32"><path style="fill:var(--color1, #000)" d="M0 0h166.667v32H0z"/><path fill="#889099" style="fill:var(--color2, #889099)" d="M0 0h166.667v32H0z"/></symbol><symbol id="icon-amex_logo" viewBox="0 0 33 32"><path fill="#889099" style="fill:var(--color2, #889099)" d="M.005 0v31.97h31.97V0H.005z"/><path fill="#323642" style="fill:var(--color3, #323642)" d="M30.462 15.502h-2.4l-.523-.829v.829h-3.455l-.307-.802h-.571l-.301.802h-2.061a3.21 3.21 0 0 1-.585-.052 2.8 2.8 0 0 1-.669-.21l.017.007a2.208 2.208 0 0 1-.284-.157l.009.005v.407h-3.445l-.624-.812v.812H2.798l-.307-.802H1.92l-.301.802h-1.62v-3.197l1.023-2.389h2.287l.506 1.141V9.916h2.803l.334.974.328-.974h12.05v.437c.183-.124.394-.227.62-.297l.017-.005a3.11 3.11 0 0 1 .934-.135h3.692l.501 1.129V9.916h2.234l.57.893v-.893h2.562v5.586zm1.517 1.923v5.242a2.342 2.342 0 0 1-.409.197 2.513 2.513 0 0 1-.861.147H19.946l-.625-.812v.812H16.84v-1.417a3.443 3.443 0 0 1-1.201.212h.037v1.205h-3.557l-.511-.727-.495.727H5.43v-5.586h5.705l.5.716.505-.716h19.838z"/><path fill="#889099" style="fill:var(--color2, #889099)" d="M9.321 18.334H6.307v3.768h3.014v-.759h-2.11v-.759h2.062v-.754H7.211v-.732h2.11v-.764zm3.138 3.767-.926-1.211-.926 1.212H9.51l1.502-1.884-1.507-1.884h1.129l.92 1.195.926-1.195h1.097l-1.502 1.868 1.512 1.9h-1.13zm1.329.001h.904v-1.244h1.135c.824 0 1.335-.537 1.335-1.265 0-.747-.5-1.259-1.302-1.259h-2.072v3.768zm5.194-1.357 1.125 1.356h1.125l-1.254-1.388c.641-.119 1.022-.581 1.022-1.184 0-.705-.5-1.195-1.303-1.195h-2.045v3.768h.904v-1.357h.425zm5.683-2.411h-3.014v3.768h3.014v-.759h-2.11v-.759h2.061v-.754h-2.061v-.732h2.11v-.764zm2.482 3.014c.215 0 .371-.151.371-.382 0-.226-.156-.366-.371-.366h-.867c-.715 0-1.173-.398-1.173-1.093 0-.678.485-1.173 1.297-1.173h1.943l-.334.764h-1.636c-.215 0-.366.151-.366.377 0 .22.151.36.366.36h.871c.732 0 1.169.393 1.169 1.065 0 .705-.485 1.201-1.298 1.201h-1.905v-.754h1.932zm3.584 0c.215 0 .372-.151.372-.382 0-.226-.156-.366-.372-.366h-.866c-.715 0-1.173-.398-1.173-1.093 0-.678.485-1.173 1.297-1.173h1.944l-.334.764h-1.636c-.216 0-.366.151-.366.377 0 .22.151.36.366.36h.872c.731 0 1.167.393 1.167 1.065 0 .705-.484 1.201-1.298 1.201h-1.905v-.754h1.932zm-11.114-2.245c.323 0 .495.21.495.468s-.172.463-.495.463h-1.06v-.93h1.061zm-3.363.495c0 .254-.162.463-.479.463h-1.081v-.926h1.081c.318 0 .479.204.479.462zM4.43 14.593l-1.609-3.768h-1.19L.016 14.593H.98l.318-.807h1.791l.323.807h1.017zm1.066-3.59 1.044 3.59h.818l1.044-3.568-.021.99v2.578h.877v-3.768H7.665l-.716 2.67-.721-2.67H4.64v3.768h.876v-2.572l-.021-1.017zm7.517.586h-2.11v.732h2.061v.753h-2.061v.748h2.11v.77H9.999v-3.768h3.014v.764zm1.993 1.648 1.125 1.356h1.124l-1.254-1.388c.641-.119 1.023-.581 1.023-1.184 0-.705-.501-1.195-1.303-1.195h-2.046v3.768h.904v-1.356h.425zm3.438 1.356v-3.768h-.904v3.768h.904zm2.309 0c-1.087-.005-1.738-.731-1.738-1.851v-.065c0-1.071.635-1.852 1.797-1.852h1.055v.813h-.98c-.646 0-.974.446-.974 1.045v.053c0 .667.366 1.055.985 1.055h.274l-.372.802h-.049zm4.961 0-1.608-3.768h-1.19l-1.614 3.768h.963l.318-.807h1.792l.323.807h1.017zm1.093-2.255-.011-.312.188.312 1.442 2.255h1.055v-3.768h-.883v2.18l.012.28-.167-.28-1.41-2.18h-1.108v3.768h.882v-2.255zm-3.605-.108.274-.705.274.705.334.834h-1.21l.328-.834zm-7.562-.635c.322 0 .495.21.495.468 0 .259-.172.463-.495.463h-1.06v-.93h1.061zm-13.724.635.275-.705.274.705.334.834H1.588l.328-.834z"/></symbol><symbol id="icon-Bitcoin" viewBox="0 0 105 32"><path fill="#889099" style="fill:var(--color2, #889099)" d="M32.089 6.611c.888 0 1.653.157 2.297.468a4.614 4.614 0 0 1 1.609 1.267c.423.535.737 1.16.941 1.875.2.717.303 1.488.303 2.313a9.227 9.227 0 0 1-.705 3.596 9.356 9.356 0 0 1-1.928 2.95l.002-.003a9.075 9.075 0 0 1-2.822 1.959l-.058.023c-1.105.488-2.307.731-3.597.731-.167 0-.46-.004-.873-.013a12.949 12.949 0 0 1-1.494-.131l.069.008a16.478 16.478 0 0 1-1.82-.359l.116.025a8.474 8.474 0 0 1-1.753-.628l.051.022L27.216.687l4.291-.661-1.715 7.107a6.649 6.649 0 0 1 1.107-.385 5.085 5.085 0 0 1 1.191-.137zm-3.598 11.793c.647 0 1.255-.159 1.827-.469a4.825 4.825 0 0 0 1.476-1.243l.008-.01a6.354 6.354 0 0 0 .983-1.777c.24-.66.36-1.349.36-2.067 0-.881-.147-1.569-.443-2.067-.296-.493-.841-.743-1.635-.743-.26 0-.595.049-1.009.136a2.549 2.549 0 0 0-1.124.581l-1.827 7.547c.111.019.208.037.291.055.174.037.373.057.578.057h.516zm13.2 3h-4.099l3.461-14.487h4.127l-3.489 14.488zm1.994-16.253a2.562 2.562 0 0 1-1.552-.507c-.464-.339-.693-.859-.693-1.559 0-.385.079-.747.235-1.087A2.912 2.912 0 0 1 43.179.529l.019-.007a2.747 2.747 0 0 1 1.096-.219c.572 0 1.088.169 1.549.509.46.34.692.86.692 1.556 0 .387-.077.749-.236 1.089a2.901 2.901 0 0 1-1.501 1.466l-.019.007a2.67 2.67 0 0 1-1.07.22h-.024.001zm5.086-1.844 4.293-.661-1.055 4.271h4.596l-.829 3.36h-4.569l-1.217 5.068a5.543 5.543 0 0 0-.193 1.167l-.001.015c-.02.369.027.685.137.952.109.267.308.472.595.617.287.148.696.223 1.232.223.441 0 .872-.041 1.289-.125a9.04 9.04 0 0 0 1.257-.344l.307 3.141a14.67 14.67 0 0 1-1.8.523c-.647.147-1.413.219-2.299.219-1.273 0-2.261-.187-2.964-.561-.703-.377-1.199-.893-1.496-1.545-.293-.649-.424-1.4-.387-2.243.039-.847.165-1.736.387-2.673L48.77 3.31zm7.654 12.314c0-1.248.203-2.425.609-3.528a8.673 8.673 0 0 1 1.753-2.9l-.006.007a8.192 8.192 0 0 1 2.702-1.934l.052-.021c1.077-.477 2.283-.717 3.612-.717.832 0 1.575.077 2.228.235a8.97 8.97 0 0 1 1.787.619l-1.413 3.199c-.368-.149-.752-.28-1.147-.4-.397-.121-.881-.18-1.453-.18-1.368 0-2.449.468-3.255 1.404-.801.936-1.205 2.195-1.205 3.775 0 .937.203 1.693.611 2.273.405.579 1.153.867 2.241.867a7.595 7.595 0 0 0 2.93-.596l-.05.019.307 3.277c-.519.2-1.089.381-1.717.539-.627.153-1.376.232-2.244.232-1.144 0-2.113-.167-2.907-.495-.793-.333-1.448-.776-1.965-1.337a5.017 5.017 0 0 1-1.112-1.935l-.009-.036a7.825 7.825 0 0 1-.348-2.334v-.033.002zm18.204 6.17c-.977 0-1.827-.147-2.548-.44a4.73 4.73 0 0 1-1.78-1.236l-.004-.004a5.335 5.335 0 0 1-1.056-1.849l-.011-.038c-.241-.724-.357-1.528-.357-2.408 0-1.104.179-2.207.539-3.307a9.36 9.36 0 0 1 1.608-2.993l-.014.018a8.538 8.538 0 0 1 2.53-2.143l.043-.022c1.013-.559 2.179-.84 3.488-.84.96 0 1.805.149 2.536.443a4.737 4.737 0 0 1 1.8 1.24c.467.533.824 1.16 1.063 1.887.241.723.36 1.528.36 2.409a10.933 10.933 0 0 1-.546 3.384l.022-.077a9.533 9.533 0 0 1-1.567 2.995l.016-.021a8.17 8.17 0 0 1-2.518 2.141l-.042.021c-1.027.56-2.213.84-3.56.84zM76.677 10c-.608 0-1.144.176-1.604.523-.469.361-.857.8-1.151 1.301l-.011.021a6.424 6.424 0 0 0-.707 1.748 7.37 7.37 0 0 0-.235 1.802v.003c0 .919.149 1.633.441 2.149.297.512.831.771 1.607.771.611 0 1.144-.173 1.607-.525a4.487 4.487 0 0 0 1.161-1.32 6.492 6.492 0 0 0 .709-1.749 7.604 7.604 0 0 0 .233-1.804c0-.917-.148-1.635-.444-2.149-.295-.513-.831-.771-1.607-.771zm10.614 11.404H83.19l3.461-14.488h4.128l-3.488 14.488zm1.99-16.253a2.554 2.554 0 0 1-1.549-.507c-.463-.339-.693-.859-.693-1.559 0-.385.079-.747.235-1.087.157-.34.365-.635.624-.883a3.06 3.06 0 0 1 .9-.593c.34-.147.705-.219 1.093-.219.573 0 1.089.169 1.551.509s.693.86.693 1.556c0 .387-.081.749-.237 1.089a2.883 2.883 0 0 1-1.501 1.466l-.019.007c-.343.149-.707.22-1.096.22zm4.448 2.425c.312-.091.659-.2 1.037-.317a14.919 14.919 0 0 1 2.782-.571l.071-.006a17.52 17.52 0 0 1 1.979-.097c2.16 0 3.651.627 4.473 1.875.821 1.249.964 2.957.431 5.123l-1.884 7.824h-4.125l1.827-7.659c.111-.479.2-.941.263-1.393a3.307 3.307 0 0 0-.017-1.204l.004.021a1.417 1.417 0 0 0-.508-.824l-.003-.002c-.271-.212-.68-.317-1.233-.317a8.3 8.3 0 0 0-1.633.168l-2.687 11.211h-4.127L93.73 7.579zM44.213 30.04l-.804 1.453h-.869a64.795 64.795 0 0 1 3.661-5.869l-.141.212h.78c.081.408.157.821.225 1.237.103.549.24 1.492.357 2.442l.032.322c.06.511.124 1.063.189 1.656h-.804a34.196 34.196 0 0 1-.075-.739 21.57 21.57 0 0 0-.085-.827l.011.114h-2.477zm2.406-.637a40.656 40.656 0 0 0-.388-2.905l.034.243a36.247 36.247 0 0 0-1.583 2.477l-.1.185h2.036zm3.933 2.212h-.051c-.319 0-.625-.057-.908-.161l.018.006a1.824 1.824 0 0 1-.677-.439 1.824 1.824 0 0 1-.402-.678l-.004-.013a2.807 2.807 0 0 1-.136-.872v-.041.002c0-.489.079-.957.235-1.404.156-.445.377-.84.664-1.183a3.266 3.266 0 0 1 1.02-.813l.018-.009a2.96 2.96 0 0 1 1.353-.307c.427 0 .768.044 1.021.132.255.087.436.168.547.244l-.329.653a2.338 2.338 0 0 0-1.227-.343l-.056.001h.003a1.95 1.95 0 0 0-1.017.267 2.565 2.565 0 0 0-.758.679l-.005.007a3.123 3.123 0 0 0-.47.924l-.006.022c-.102.31-.162.668-.164 1.039v.001c0 1.061.463 1.592 1.387 1.592a3.122 3.122 0 0 0 1.262-.254l.247-.115.099.687a2.177 2.177 0 0 1-.259.121 3.254 3.254 0 0 1-.373.124 3.918 3.918 0 0 1-1.009.129h-.025.001zm4.609 0c-.355 0-.668-.052-.939-.155a1.824 1.824 0 0 1-.677-.439 1.827 1.827 0 0 1-.403-.678l-.004-.013a2.786 2.786 0 0 1-.135-.868v-.045.002c0-.489.077-.957.233-1.404a3.75 3.75 0 0 1 .665-1.183 3.277 3.277 0 0 1 1.019-.813l.018-.009a2.968 2.968 0 0 1 1.355-.307c.427 0 .767.044 1.021.132.253.087.436.168.545.244l-.328.653a2.332 2.332 0 0 0-1.226-.343l-.057.001h.003c-.377 0-.717.088-1.017.267a2.569 2.569 0 0 0-.759.679l-.005.007c-.207.28-.365.596-.476.947-.102.31-.162.668-.164 1.039v.001c0 1.061.463 1.592 1.387 1.592a3.122 3.122 0 0 0 1.264-.254l.247-.115.099.687a2.177 2.177 0 0 1-.259.121 3.32 3.32 0 0 1-.373.124 3.92 3.92 0 0 1-1.01.129h-.026.001zm2.204-.122 1.361-5.659h3.356l-.156.661h-2.567l-.411 1.707h2.281l-.156.645h-2.275l-.484 1.983h2.757l-.156.661h-3.552zm7.094-5.714c.661 0 1.16.124 1.497.375.336.251.504.616.504 1.093 0 .371-.069.691-.209.96a1.813 1.813 0 0 1-.588.663l-.006.004a2.779 2.779 0 0 1-.927.387 5.337 5.337 0 0 1-1.207.127h-.567l-.508 2.107h-.796l1.347-5.584c.228-.053.472-.089.729-.107.218-.015.472-.024.728-.024h.003zm-.099.669c-.389 0-.624.011-.707.032l-.541 2.245h.517c.229 0 .465-.02.707-.061.24-.04.456-.113.647-.216.193-.105.351-.25.469-.425l.003-.005c.117-.185.186-.411.186-.653l-.001-.055v.003c0-.309-.115-.532-.345-.667-.229-.133-.541-.2-.935-.2zm6.955-.612-.156.66h-1.715l-1.207 4.996h-.796l1.207-4.996h-1.715l.155-.66h4.227zm-.739 5.657 1.361-5.659h3.356l-.156.661h-2.568l-.409 1.707h2.28l-.156.645h-2.271l-.484 1.983h2.756l-.156.661h-3.552zm7.081-5.714c.841 0 1.471.197 1.887.592.416.393.624.925.624 1.595 0 .469-.075.92-.221 1.351a3.162 3.162 0 0 1-.689 1.147c-.328.34-.727.609-1.172.785l-.023.008c-.484.196-1.063.293-1.735.293-.231 0-.48-.011-.747-.032a4.017 4.017 0 0 1-.734-.121l.028.006 1.321-5.493c.212-.052.462-.09.718-.106l.012-.001c.257-.016.5-.024.731-.024zm-.066.669c-.409 0-.656.011-.737.032l-1.051 4.36c.044.011.117.02.221.028s.273.013.509.013c.432 0 .821-.072 1.168-.217.347-.144.641-.345.883-.604.24-.259.427-.565.557-.923.132-.356.197-.747.197-1.171 0-.48-.139-.852-.419-1.12-.279-.265-.721-.4-1.329-.4zm8.706 5.045h-.796l.632-2.629h-2.635l-.632 2.628h-.796l1.363-5.656h.796l-.575 2.367h2.635l.573-2.368h.797l-1.363 5.657zm1.255 0 1.363-5.659h3.356l-.157.661h-2.567l-.411 1.707h2.281l-.156.645h-2.275l-.484 1.983h2.757l-.157.661h-3.551zm7.093-5.714c.608 0 1.089.121 1.444.367.356.245.533.604.533 1.077 0 .479-.14.88-.423 1.204-.281.324-.676.557-1.185.697.149.263.316.6.468.945l.032.08c.093.213.184.439.271.669.088.232.164.456.231.673h-.813a22.112 22.112 0 0 0-.334-.907l.097.277a12.973 12.973 0 0 0-.291-.718l.042.106a11.445 11.445 0 0 0-.521-1.065l.031.061c-.125.01-.271.016-.418.016h-.641l-.533 2.229h-.796l1.347-5.584a4.69 4.69 0 0 1 .731-.107c.256-.015.5-.023.729-.023zm-.098.669c-.388 0-.623.011-.707.032l-.516 2.14h.484c.225 0 .453-.016.689-.049.236-.032.451-.096.644-.192.193-.094.353-.23.473-.396l.003-.004c.123-.171.185-.399.185-.681 0-.305-.116-.523-.349-.653-.232-.131-.535-.196-.907-.196zm2.136 5.045 1.363-5.659h3.356l-.157.661h-2.568l-.411 1.707h2.281l-.156.645h-2.273l-.483 1.983h2.756l-.157.661h-3.551zm-85.712-9.704c6.04 0 10.936-4.872 10.936-10.88 0-6.009-4.896-10.88-10.936-10.88S.035 4.9.035 10.909c0 6.008 4.896 10.88 10.936 10.88zm2.416-15.177c1.515.52 2.623 1.297 2.405 2.747-.157 1.06-.748 1.573-1.533 1.752 1.076.557 1.625 1.413 1.103 2.896-.648 1.843-2.187 1.997-4.233 1.613l-.497 1.98-1.2-.297.491-1.955a31.248 31.248 0 0 1-1.317-.331l.359.084-.493 1.963-1.197-.297.496-1.984-.32-.083a26.078 26.078 0 0 0-.535-.137l-1.563-.387.597-1.368s.884.233.872.216c.34.084.491-.136.551-.283l.784-3.132.019.004.109.028a.735.735 0 0 0-.12-.039l-.005-.001.56-2.235c.015-.253-.073-.573-.56-.695.019-.013-.871-.216-.871-.216l.32-1.275 1.653.411v.005c.248.063.505.12.767.18l.492-1.961 1.2.297-.483 1.923c.323.073.647.147.961.227l.48-1.912 1.2.299-.493 1.963zm-.338 6.573c-.34 1.36-2.481.796-3.461.539-.088-.023-.165-.044-.233-.06l.66-2.629c.081.021.181.043.293.068 1.013.227 3.091.691 2.741 2.081zm-2.534-3.302c.817.216 2.596.688 2.907-.547.316-1.264-1.413-1.645-2.259-1.833-.096-.02-.18-.04-.249-.056l-.597 2.384.199.053z"/></symbol><symbol id="icon-mc_vrt_pos" viewBox="0 0 41 32"><path fill="#889099" style="fill:var(--color2, #889099)" d="M38.652 29.826v1.639h-.692v-.401l-.002.003c-.23.294-.587.482-.989.482l-.046-.001a1.729 1.729 0 1 1 0-3.458h-.002l.049-.001c.402 0 .759.189.991.485v-1.729h.692v2.981zM17.21 28.174v-1.003h-.726v1.003h-.657v.657h.671v1.521c0 .768.298 1.225 1.149 1.225h.005c.331 0 .64-.095.894-.256l-.207-.615a1.336 1.336 0 0 1-.636.187c-.346 0-.477-.222-.477-.554v-1.508h1.175l-.007-.657h-1.183zm-9.562 1.231v.004a1.23 1.23 0 0 0-1.3-1.318h.004a1.28 1.28 0 0 0-1.165.587l-.003-.005a1.213 1.213 0 0 0-1.038-.583l-.052.001a1.093 1.093 0 0 0-.969.491v-.408h-.719v3.306h.726v-1.819.004a.775.775 0 0 1 .767-.884l.041.001c.478 0 .72.311.72.871v1.84h.726V29.66v.004a.778.778 0 0 1 .809-.882c.491 0 .726.311.726.871v1.84l.726-.014v-2.076zm16.881-1.315-.014-.014c.183.001.359.034.512.09l-.222.692a1.156 1.156 0 0 0-.45-.083c-.456 0-.691.304-.691.85v1.854h-.719v-3.306h.712v.401l.002-.005a.976.976 0 0 1 .84-.48h.028zm-10.625 0c-.837 0-1.383.401-1.383 1.058 0 .539.401.871 1.142.975l.346.048c.394.055.581.159.581.346 0 .256-.263.401-.754.401a1.762 1.762 0 0 1-1.1-.346l-.346.56-.008-.005c.388.274.862.435 1.374.435l.066-.001c.954 0 1.508-.449 1.508-1.079s-.436-.886-1.155-.989l-.346-.049c-.311-.042-.56-.103-.56-.325s.236-.387.63-.387h.001c.381.004.738.109 1.036.283l.318-.581a2.475 2.475 0 0 0-1.349-.346zm20.615 0-.014-.014c.183.001.359.034.511.09l-.222.692a1.15 1.15 0 0 0-.449-.083c-.457 0-.691.304-.691.85v1.854h-.72v-3.306h.713v.401l.002-.005a.976.976 0 0 1 .84-.48h.028zm-8.768 2.984a1.665 1.665 0 0 0 1.265.474h-.004a1.72 1.72 0 0 0 1.193-.394l-.346-.581.003-.003a1.449 1.449 0 0 1-.868.3h-.004a1.061 1.061 0 0 1 .004-2.116h.001c.326.004.626.115.864.297l.346-.581.003.002a1.724 1.724 0 0 0-1.192-.397h.005a1.67 1.67 0 0 0-1.769 1.729v.014-.003l-.001.065c0 .467.192.889.501 1.193zm6.237-1.254v1.646h-.719v-.401l-.002.003c-.23.294-.587.482-.989.482l-.046-.001a1.729 1.729 0 1 1 0-3.458h-.002l.048-.001c.402 0 .759.189.991.485v-.401h.72v1.646zm-1.642-.941-.037-.001a1 1 0 0 0-.998.938v.003l-.002.066c0 .548.444.993.993.993h.013-.001.016a1 1 0 0 0 .017-1.999h-.001zm-9.715-.789.01.007c.927 0 1.57.692 1.57 1.729v.277h-2.455v.004a.917.917 0 0 0 .989.805h.001c.365-.005.699-.135.961-.346l.345.533.004-.003a2.003 2.003 0 0 1-1.376.452h.001-.026a1.729 1.729 0 0 1-.024-3.458zm.584.872a.817.817 0 0 0-.567-.228h-.018.001H20.588a.85.85 0 0 0-.849.8v.002h1.729a.823.823 0 0 0-.252-.575zm18.646 2.037c.089.002.17.037.23.094a.322.322 0 0 1-.105.531l-.002.001a.33.33 0 0 1-.131.028.345.345 0 0 1-.31-.198l-.001-.002a.322.322 0 0 1 .072-.359.345.345 0 0 1 .236-.094h.014-.003zm-.006.584c.07 0 .133-.029.177-.076a.257.257 0 0 0 0-.346.257.257 0 0 0-.363 0 .257.257 0 0 0 0 .346.24.24 0 0 0 .083.055c.03.013.065.021.102.021h.009-.008zm.108-.384c.019.016.031.04.031.067v.01a.08.08 0 0 1-.025.059.118.118 0 0 1-.073.031l.101.114h-.08l-.094-.114h-.031v.114h-.065v-.305l.145-.004h.007c.031 0 .06.01.083.028zm-.166.031v.084h.076a.071.071 0 0 0 .042 0h-.001a.032.032 0 0 0 0-.031c.002-.005.004-.01.004-.016s-.001-.011-.004-.016a.071.071 0 0 0-.042 0h.001l-.076-.021zm-2.769-2.343-.037-.001a1 1 0 0 0-.998.938v.003l-.002.066c0 .548.444.993.993.993h.013-.001a.999.999 0 0 0 .033-1.998h-.002zm-25.323.939v1.639h-.72v-.401l-.002.003c-.23.294-.587.482-.989.482l-.046-.001a1.729 1.729 0 1 1 0-3.458h-.002l.049-.001c.402 0 .759.189.991.485v-.401h.719v1.653zm-1.642-.939-.038-.001a1 1 0 0 0-.998.938v.003h-.006l-.002.066c0 .548.444.993.993.993h.02-.001a.999.999 0 0 0 .034-1.998h-.002z"/><path fill="#889099" style="fill:var(--color2, #889099)" opacity=".4" d="M15.706 12.77v-.013c0-3.957 1.849-7.482 4.73-9.758l.026-.02a12.449 12.449 0 0 0-16.84 1.343 12.45 12.45 0 0 0 16.84 18.235c-2.907-2.296-4.756-5.821-4.756-9.778v-.01.001z"/><path fill="#889099" style="fill:var(--color2, #889099)" d="M40.606 12.77c0 6.876-5.574 12.45-12.45 12.45a12.397 12.397 0 0 1-7.721-2.683l.026.02c2.908-2.3 4.757-5.829 4.757-9.789s-1.849-7.489-4.731-9.769l-.026-.02A12.37 12.37 0 0 1 28.156.316c6.876 0 12.45 5.574 12.45 12.45v.004z"/><path fill="#889099" style="fill:var(--color2, #889099)" opacity=".65" d="M20.572 22.88c-2.994-2.308-4.923-5.929-4.923-10s1.929-7.693 4.923-10c2.994 2.307 4.923 5.928 4.923 10s-1.929 7.692-4.923 10z"/><path fill="#889099" style="fill:var(--color2, #889099)" d="M39.417 20.081v.401h-.073v-.401h-.177v-.083h.412v.083h-.162zm.798-.083v.484l-.073.004v-.367l-.135.315h-.092l-.135-.315v.363h-.09v-.484h.111l.145.346.145-.346h.124z"/></symbol><symbol id="icon-OK-Pay" viewBox="0 0 132 32"><path fill="#889099" style="fill:var(--color2, #889099)" d="M129.986 2.498h-2.007c-1.284 0-2.238.862-2.976 1.915l-6.292 8.96-3.728-5.308c-.018-.027-.027-.05-.046-.078l-2.51-3.566c-.74-1.051-1.703-1.911-2.987-1.911h-1.861c-1.285 0-2.117.859-1.374 1.908l2.528 3.573.018.021 7.193 10.156v11.495a2.34 2.34 0 0 0 2.336 2.338l.871-.002a2.35 2.35 0 0 0 2.336-2.345V18.155l7.662-10.814c.023-.032.053-.062.076-.094l2.004-2.837c.743-1.051.044-1.911-1.241-1.911zM46.14 16.32 58.46 4.464c.912-.878-.071-1.966-1.321-1.966h-2.743c-1.25 0-1.881.722-2.791 1.605l-8.795 8.524V8.849h-.014c.004-.05.014-.1.014-.151V4.84c0-1.289-1.02-2.343-2.27-2.343h-1.02c-1.25 0-2.272 1.054-2.272 2.343v3.858c0 .052.011.101.014.151h-.014v20.809c0 1.287 1.022 2.341 2.272 2.341h1.02c1.25 0 2.27-1.054 2.27-2.341v-9.317l4.9 5.04h.005l4.821 4.965c.884.908 1.493 1.653 2.743 1.653h2.748c1.25 0 1.781-1.524.898-2.432L46.137 16.319zm54.338 2.889H95.1c-.647 0-.974-.487-.732-1.084l2.969-7.28c.244-.596.644-.596.889 0l2.983 7.282c.244.596-.085 1.084-.731 1.084zm10.802 9.87h.014l-9.376-23.312h-.005l-.439-1.095c-.48-1.195-1.929-2.174-3.221-2.174h-.932c-1.291 0-2.74.98-3.216 2.178l-.434 1.092h-.018l-9.687 24.06c-.484 1.195.18 2.172 1.472 2.172h2.089c1.292 0 1.899-.987 2.347-2.196l.316-.848h.012l1.888-5.02h11.417l.155.402.116.24 1.684 4.501h.005l.27.725c.45 1.209 1.239 2.196 2.532 2.196h1.849c1.292 0 1.952-.978 1.467-2.169l-.304-.752zM82.22 13.564a3.565 3.565 0 0 1-.949 1.373l-.004.003c-.844.747-2.105 1.154-3.801 1.154h-3.068c-.65 0-1.179-.524-1.186-1.173V8.355c0-.644.535-1.17 1.191-1.17h3.063c1.696 0 2.956.405 3.801 1.156.421.373.736.823.953 1.371.213.546.324 1.184.324 1.918 0 .741-.11 1.383-.324 1.934zm5.529 2.006c.48-1.15.715-2.468.715-3.94 0-1.461-.236-2.772-.713-3.915a7.44 7.44 0 0 0-2.133-2.893l-.013-.01c-1.888-1.554-4.64-2.315-8.139-2.315h-7.572c-1.31 0-2.382 1.054-2.382 2.343v24.818c0 1.287 1.072 2.341 2.382 2.341h.932c1.312 0 2.384-1.054 2.384-2.341V20.78h4.256c3.499 0 6.251-.754 8.139-2.306a7.346 7.346 0 0 0 2.146-2.905zm-61.082 8.714c-.782.978-1.676 1.694-2.711 2.169-1.031.475-2.213.716-3.564.716-1.355 0-2.537-.242-3.573-.716-1.042-.475-1.94-1.196-2.729-2.178-.924-1.143-1.579-2.574-1.973-4.263l-.366-2.457a17.077 17.077 0 0 1-.024-2.494l-.002.049.284-2.459c.366-1.922 1.063-3.532 2.082-4.8l-.004.009h.004c.789-.988 1.689-1.705 2.729-2.178 1.036-.475 2.219-.716 3.573-.716 1.351 0 2.532.242 3.564.716 1.035.473 1.929 1.189 2.711 2.169 1.564 1.961 2.375 4.715 2.375 8.222 0 3.502-.811 6.247-2.375 8.208zm4.307-19.768C28.334 1.609 24.741.13 20.391.139 16.018.13 12.419 1.609 9.776 4.516c-1.947 2.133-3.179 4.83-3.685 8.02v.009l-.236 2.514v.016c-.016.32-.036.645-.036 1.003 0 .53.025 1.042.055 1.54v.018l.32 2.512v.007c.558 2.948 1.742 5.468 3.582 7.484 2.644 2.892 6.244 4.372 10.613 4.363 4.352.009 7.945-1.47 10.585-4.379 2.624-2.887 3.947-6.791 3.947-11.545 0-4.759-1.317-8.674-3.947-11.559z"/><path fill="#889099" style="fill:var(--color2, #889099)" d="M20.315 14.299H1.165l1.801-3.54h19.15l-1.801 3.54zm-3.588 7.081H0l1.897-3.541h16.727l-1.899 3.541z"/></symbol><symbol id="icon-PayPal" viewBox="0 0 32 32"><path style="fill:var(--color1, #000)" d="M0 0h32v32H0z"/><path fill="#889099" style="fill:var(--color2, #889099)" d="M0 0h32v32H0z"/></symbol><symbol id="icon-visa" viewBox="0 0 32 32"><path style="fill:var(--color1, #000)" d="M0 0h32v32H0z"/><path fill="#889099" style="fill:var(--color2, #889099)" d="M0 0h32v32H0z"/></symbol></defs></svg>